<!-- icon666.com - MILLIONS vector ICONS FREE --><svg id="Capa_1" enable-background="new 0 0 512 512" viewBox="0 0 512 512" xmlns="http://www.w3.org/2000/svg"><g><path d="m451 120h-5.142c-13.623-38.525-51.973-65.156-95.098-59.312-17.05-36.796-53.627-60.688-94.76-60.688s-77.71 23.892-94.761 60.688c-43.125-5.698-82.474 20.801-96.097 59.312h-5.142c-33.091 0-60 27.909-60 61s26.909 60 60 60h181v30h-120v151h270v-151h-120v-30h180c33.091 0 61-26.909 61-60s-27.909-61-61-61z"></path><path d="m111.728 452-30 60h348.544l-30-60z"></path></g></svg>