<!-- icon666.com - MILLIONS vector ICONS FREE --><svg id="Capa_1" enable-background="new 0 0 512 512" viewBox="0 0 512 512" xmlns="http://www.w3.org/2000/svg" xmlns:xlink="http://www.w3.org/1999/xlink"><linearGradient id="SVGID_1_" gradientUnits="userSpaceOnUse" x1="256" x2="256" y1="512" y2="0"><stop offset="0" stop-color="#addcff"></stop><stop offset=".5028" stop-color="#eaf6ff"></stop><stop offset="1" stop-color="#eaf6ff"></stop></linearGradient><linearGradient id="SVGID_2_" gradientUnits="userSpaceOnUse" x1="256" x2="256" y1="407" y2="105"><stop offset="0" stop-color="#00c0ff"></stop><stop offset="1" stop-color="#5558ff"></stop></linearGradient><g><g><circle cx="256" cy="256" fill="url(#SVGID_1_)" r="256"></circle></g></g><g><g><g><g><path d="m196.604 202.405c-.607 2.267-.289 4.682.884 6.714l17.695 30.649c1.173 2.032 3.106 3.515 5.373 4.122s4.682.29 6.713-.884l13.074-7.549c2.68 1.854 5.489 3.484 8.41 4.883v15.069c0 4.886 3.961 8.848 8.848 8.848h35.391c4.886 0 8.848-3.961 8.848-8.848v-15.068c2.922-1.399 5.731-3.03 8.411-4.884l13.074 7.548c2.032 1.173 4.449 1.491 6.714.884 2.267-.607 4.199-2.09 5.373-4.122l17.695-30.649c1.173-2.032 1.491-4.447.884-6.714s-2.09-4.199-4.123-5.372l-12.872-7.432c.158-1.711.235-3.361.235-4.972s-.078-3.261-.235-4.972l12.872-7.431c2.032-1.173 3.515-3.106 4.123-5.373s.289-4.682-.884-6.714l-17.695-30.649c-1.173-2.032-3.106-3.515-5.373-4.122-2.266-.607-4.681-.289-6.714.884l-13.074 7.548c-2.68-1.854-5.488-3.485-8.411-4.884v-15.068c0-4.886-3.961-8.848-8.848-8.848h-35.391c-4.886 0-8.848 3.961-8.848 8.848v15.068c-2.922 1.399-5.73 3.03-8.41 4.884l-13.074-7.548c-2.032-1.174-4.449-1.491-6.713-.884-2.267.607-4.199 2.09-5.373 4.122l-17.695 30.649c-1.173 2.032-1.491 4.447-.884 6.714.608 2.267 2.091 4.199 4.123 5.373l12.873 7.431c-.158 1.71-.236 3.361-.236 4.972s.078 3.261.236 4.972l-12.873 7.432c-2.032 1.174-3.515 3.106-4.123 5.373zm78.693-44.319c14.636 0 26.543 11.907 26.543 26.543s-11.907 26.543-26.543 26.543-26.543-11.907-26.543-26.543 11.907-26.543 26.543-26.543zm113.353 129.654c-8.349-8.349-21.885-8.349-30.234 0l-36.591 36.591c-8.298 8.299-19.553 12.96-31.289 12.96h-73.526c-4.89 0-8.848-3.957-8.848-8.848s3.957-8.848 8.848-8.848h61.934c9.773 0 17.695-7.922 17.695-17.695s-7.922-17.589-17.695-17.589h-82.664c-7.041 0-13.794 2.69-18.773 7.67l-54.157 54.156c-3.455 3.455-3.455 9.057 0 12.513l45.758 45.757c3.455 3.455 9.057 3.455 12.512 0l29.134-29.134c1.66-1.66 3.911-2.592 6.258-2.592h73.59c16.386 0 32.102-6.508 43.691-18.093l54.356-54.335c3.456-3.454 3.457-9.057.001-12.513z" fill="url(#SVGID_2_)"></path></g></g></g></g></svg>