<!-- icon666.com - MILLIONS vector ICONS FREE --><svg id="Layer_1" enable-background="new 0 0 66 66" viewBox="0 0 66 66" xmlns="http://www.w3.org/2000/svg"><g><g fill="#fec200"><path d="m48.04 45.76h-12.95c-.55 0-1 .45-1 1v3.06c0 .55.45 1 1 1h12.96c.55 0 1-.45 1-1v-3.06c-.01-.55-.45-1-1.01-1z"></path><path d="m48.04 35.64h-12.95c-.55 0-1 .45-1 1v3.06c0 .55.45 1 1 1h12.96c.55 0 1-.45 1-1v-3.06c-.01-.56-.45-1-1.01-1z"></path><path d="m48.04 50.82h-12.95c-.55 0-1 .45-1 1v3.06c0 .55.45 1 1 1h12.96c.55 0 1-.45 1-1v-3.06c-.01-.55-.45-1-1.01-1z"></path><path d="m48.04 40.7h-12.95c-.55 0-1 .45-1 1v3.06c0 .55.45 1 1 1h12.96c.55 0 1-.45 1-1v-3.06c-.01-.55-.45-1-1.01-1z"></path><path d="m48.04 30.57h-12.95c-.55 0-1 .45-1 1v3.06c0 .55.45 1 1 1h12.96c.55 0 1-.45 1-1v-3.06c-.01-.55-.45-1-1.01-1z"></path></g><path d="m36.22 54.74c-.55 0-1-.45-1-1v-2.92h-.14c-.55 0-1 .45-1 1v3.06c0 .55.45 1 1 1h12.96c.55 0 1-.45 1-1v-.14z" opacity=".1"></path><path d="m36.22 49.68c-.55 0-1-.45-1-1v-2.92h-.14c-.55 0-1 .45-1 1v3.06c0 .55.45 1 1 1h12.96c.55 0 1-.45 1-1v-.14z" opacity=".1"></path><path d="m36.22 44.62c-.55 0-1-.45-1-1v-2.92h-.14c-.55 0-1 .45-1 1v3.06c0 .55.45 1 1 1h12.96c.55 0 1-.45 1-1v-.14z" opacity=".1"></path><path d="m36.22 39.56c-.55 0-1-.45-1-1v-2.92h-.14c-.55 0-1 .45-1 1v3.06c0 .55.45 1 1 1h12.96c.55 0 1-.45 1-1v-.14z" opacity=".1"></path><path d="m36.22 34.5c-.55 0-1-.45-1-1v-2.92h-.14c-.55 0-1 .45-1 1v3.06c0 .55.45 1 1 1h12.96c.55 0 1-.45 1-1v-.14z" opacity=".1"></path><path d="m63 50.82h-12.96c-.55 0-1 .45-1 1v3.06c0 .55.45 1 1 1h12.96c.55 0 1-.45 1-1v-3.06c0-.55-.45-1-1-1z" fill="#fec200"></path><path d="m51.18 54.74c-.55 0-1-.45-1-1v-2.92h-.14c-.55 0-1 .45-1 1v3.06c0 .55.45 1 1 1h12.96c.55 0 1-.45 1-1v-.14z" opacity=".1"></path><path d="m63 40.7h-12.96c-.55 0-1 .45-1 1v3.06c0 .55.45 1 1 1h12.96c.55 0 1-.45 1-1v-3.06c0-.55-.45-1-1-1z" fill="#fec200"></path><path d="m63 45.76h-12.96c-.55 0-1 .45-1 1v3.06c0 .55.45 1 1 1h12.96c.55 0 1-.45 1-1v-3.06c0-.55-.45-1-1-1z" fill="#fec200"></path><path d="m63 35.64h-12.96c-.55 0-1 .45-1 1v3.06c0 .55.45 1 1 1h12.96c.55 0 1-.45 1-1v-3.06c0-.56-.45-1-1-1z" fill="#fec200"></path><path d="m6.29 58.29c.13.41.52.69.95.69h4.48c.43 0 .82-.28.95-.69l.78-2.41h-7.93z" fill="#5d5b68"></path><path d="m26.31 55.88.78 2.41c.13.41.52.69.95.69h4.48c.43 0 .82-.28.95-.69l.78-2.41z" fill="#5d5b68"></path><path d="m35.78 22.11h-31.79c-1.1 0-1.99.89-1.99 1.98v29.8c0 1.1.89 1.99 1.99 1.99h31.79c1.1 0 1.99-.89 1.99-1.99v-29.8c-.01-1.09-.9-1.98-1.99-1.98z" fill="#009aff"></path><path d="m5.97 51.14v-23.83c0-.55.45-1 1-1h25.82c.55 0 1 .45 1 1v23.83c0 .55-.45 1-1 1h-25.82c-.55 0-1-.45-1-1z" fill="#e6e9ee"></path><path d="m30.82 32.38c-.55 0-1 .45-1 1v11.23c0 .55.45 1 1 1h2.97v-13.23z" fill="#aab2bd"></path><path d="m32.01 44.17c-.55 0-1-.45-1-1v-10.79h-.2c-.55 0-1 .45-1 1v11.23c0 .55.45 1 1 1h2.97v-1.44z" opacity=".1"></path><circle cx="17.89" cy="38.99" fill="#ff4823" r="5.85"></circle><g fill="#ff4823"><path d="m17.89 29.66c-.55 0-1 .45-1 1v2.48c0 .55.45 1 1 1s1-.45 1-1v-2.48c0-.55-.44-1-1-1z"></path><path d="m17.89 43.84c-.55 0-1 .45-1 1v2.48c0 .55.45 1 1 1s1-.45 1-1v-2.48c0-.55-.44-1-1-1z"></path><path d="m13.05 38.99c0-.55-.45-1-1-1h-2.49c-.55 0-1 .45-1 1s.45 1 1 1h2.48c.56 0 1.01-.44 1.01-1z"></path><path d="m26.22 37.99h-2.48c-.55 0-1 .45-1 1s.45 1 1 1h2.48c.55 0 1-.45 1-1s-.44-1-1-1z"></path><path d="m22.03 35.86c.26 0 .51-.1.71-.29l1.76-1.76c.39-.39.39-1.02 0-1.41s-1.02-.39-1.41 0l-1.76 1.76c-.39.39-.39 1.02 0 1.41.19.19.44.29.7.29z"></path><path d="m13.05 42.42-1.76 1.76c-.39.39-.39 1.02 0 1.41.2.2.45.29.71.29s.51-.1.71-.29l1.76-1.76c.39-.39.39-1.02 0-1.41s-1.03-.39-1.42 0z"></path><path d="m12.71 32.4c-.39-.39-1.02-.39-1.41 0s-.39 1.02 0 1.41l1.76 1.76c.2.2.45.29.71.29s.51-.1.71-.29c.39-.39.39-1.02 0-1.41z"></path><path d="m22.73 42.42c-.39-.39-1.02-.39-1.41 0s-.39 1.02 0 1.41l1.76 1.76c.2.2.45.29.71.29s.51-.1.71-.29c.39-.39.39-1.02 0-1.41z"></path></g><circle cx="53.2" cy="16.81" fill="#fec200" r="9.8"></circle><path d="m53.2 15.81c-.81 0-1.47-.66-1.47-1.47s.66-1.47 1.47-1.47 1.47.66 1.47 1.47c0 .55.45 1 1 1s1-.45 1-1c0-1.56-1.05-2.87-2.47-3.31v-.35c0-.55-.45-1-1-1s-1 .45-1 1v.35c-1.42.43-2.47 1.74-2.47 3.31 0 1.91 1.56 3.47 3.47 3.47.81 0 1.47.66 1.47 1.47s-.66 1.47-1.47 1.47-1.47-.66-1.47-1.47c0-.55-.45-1-1-1s-1 .45-1 1c0 1.56 1.05 2.87 2.47 3.31v.35c0 .55.45 1 1 1s1-.45 1-1v-.35c1.42-.43 2.47-1.74 2.47-3.31 0-1.91-1.56-3.47-3.47-3.47z" fill="#fff"></path><circle cx="17.89" cy="38.99" fill="#e6e9ee" r="2.01"></circle><path d="m57.36 22.45c-5.41 0-9.8-4.39-9.8-9.8 0-1.63.41-3.17 1.11-4.53-3.13 1.64-5.27 4.91-5.27 8.69 0 5.41 4.39 9.8 9.8 9.8 3.78 0 7.05-2.14 8.69-5.27-1.36.71-2.9 1.11-4.53 1.11z" opacity=".1"></path><path d="m51.18 49.68c-.55 0-1-.45-1-1v-2.92h-.14c-.55 0-1 .45-1 1v3.06c0 .55.45 1 1 1h12.96c.55 0 1-.45 1-1v-.14z" opacity=".1"></path><path d="m51.18 44.62c-.55 0-1-.45-1-1v-2.92h-.14c-.55 0-1 .45-1 1v3.06c0 .55.45 1 1 1h12.96c.55 0 1-.45 1-1v-.14z" opacity=".1"></path><path d="m51.18 39.56c-.55 0-1-.45-1-1v-2.92h-.14c-.55 0-1 .45-1 1v3.06c0 .55.45 1 1 1h12.96c.55 0 1-.45 1-1v-.14z" opacity=".1"></path><path d="m8.53 57.97c-.43 0-.82-.28-.95-.69l-.45-1.4h-1.61l.78 2.41c.13.41.52.69.95.69h4.48c.43 0 .82-.28.95-.69l.1-.32z" opacity=".15"></path><path d="m29.32 57.97c-.43 0-.82-.28-.95-.69l-.45-1.4h-1.61l.78 2.41c.13.41.52.69.95.69h4.48c.43 0 .82-.28.95-.69l.1-.32z" opacity=".15"></path><path d="m35.77 52.88c-16.99 0-30.77-13.78-30.77-30.77h-1.01c-1.1 0-1.99.89-1.99 1.98v29.8c0 1.1.89 1.99 1.99 1.99h31.79c1.1 0 1.99-.89 1.99-1.99v-1.02h-2z" opacity=".1"></path><path d="m35.78 22.11h-15.43c0 1.66 1.34 3 3 3h11.41v8.77c0 1.66 1.34 3 3 3v-12.79c0-1.09-.89-1.98-1.98-1.98z" fill="#fff" opacity=".25"></path></g></svg>