<!-- icon666.com - MILLIONS vector ICONS FREE --><svg version="1.1" id="Layer_1" xmlns="http://www.w3.org/2000/svg" xmlns:xlink="http://www.w3.org/1999/xlink" x="0px" y="0px" viewBox="0 0 512 512" style="enable-background:new 0 0 512 512;" xml:space="preserve"><g><path style="fill:#35495E;" d="M450.207,158.897H26.483C11.855,158.897,0,147.041,0,132.414V26.483C0,11.855,11.855,0,26.483,0 h423.724c14.627,0,26.483,11.855,26.483,26.483v105.931C476.69,147.041,464.834,158.897,450.207,158.897"></path><path style="fill:#1F2F3D;" d="M300.138,272.922c72.342,0,105.931-34.578,105.931-34.578s22.625,23.208,70.621,31.585v-84.551 c0-14.627-11.855-26.483-26.483-26.483H26.483C11.855,158.897,0,170.752,0,185.379V291.31c0,14.627,11.855,26.483,26.483,26.483 h273.655V272.922z"></path><path style="fill:#35495E;" d="M300.138,366.138V317.79H26.483C11.855,317.79,0,329.645,0,344.272v105.931 c0,14.636,11.855,26.483,26.483,26.483h322.304C318.941,447.846,300.138,407.654,300.138,366.138"></path><path style="fill:#26B99A;" d="M211.862,114.759h-17.655c-4.873,0-8.828-3.946-8.828-8.828V88.276c0-4.882,3.955-8.828,8.828-8.828 h17.655c4.873,0,8.828,3.946,8.828,8.828v17.655C220.69,110.813,216.735,114.759,211.862,114.759"></path><path style="fill:#F0C419;" d="M141.241,114.759h-17.655c-4.873,0-8.828-3.946-8.828-8.828V88.276c0-4.882,3.955-8.828,8.828-8.828 h17.655c4.873,0,8.828,3.946,8.828,8.828v17.655C150.069,110.813,146.114,114.759,141.241,114.759"></path><path style="fill:#E64C3C;" d="M70.621,114.759H52.966c-4.873,0-8.828-3.946-8.828-8.828V88.276c0-4.882,3.955-8.828,8.828-8.828 h17.655c4.873,0,8.828,3.946,8.828,8.828v17.655C79.448,110.813,75.494,114.759,70.621,114.759"></path><path style="fill:#1F2F3D;" d="M432.552,88.276H273.655c-4.873,0-8.828-3.946-8.828-8.828c0-4.882,3.955-8.828,8.828-8.828h158.897 c4.873,0,8.828,3.946,8.828,8.828C441.379,84.33,437.425,88.276,432.552,88.276"></path><path style="fill:#26B99A;" d="M211.862,273.655h-17.655c-4.873,0-8.828-3.946-8.828-8.828v-17.655 c0-4.882,3.955-8.828,8.828-8.828h17.655c4.873,0,8.828,3.946,8.828,8.828v17.655C220.69,269.709,216.735,273.655,211.862,273.655"></path><path style="fill:#F0C419;" d="M141.241,273.655h-17.655c-4.873,0-8.828-3.946-8.828-8.828v-17.655 c0-4.882,3.955-8.828,8.828-8.828h17.655c4.873,0,8.828,3.946,8.828,8.828v17.655C150.069,269.709,146.114,273.655,141.241,273.655 "></path><path style="fill:#E64C3C;" d="M70.621,273.655H52.966c-4.873,0-8.828-3.946-8.828-8.828v-17.655c0-4.882,3.955-8.828,8.828-8.828 h17.655c4.873,0,8.828,3.946,8.828,8.828v17.655C79.448,269.709,75.494,273.655,70.621,273.655"></path><path style="fill:#35495E;" d="M353.103,247.172h-79.448c-4.873,0-8.828-3.946-8.828-8.828c0-4.882,3.955-8.828,8.828-8.828h79.448 c4.873,0,8.828,3.946,8.828,8.828C361.931,243.226,357.976,247.172,353.103,247.172"></path><path style="fill:#26B99A;" d="M211.862,432.552h-17.655c-4.873,0-8.828-3.946-8.828-8.828v-17.655 c0-4.882,3.955-8.828,8.828-8.828h17.655c4.873,0,8.828,3.946,8.828,8.828v17.655C220.69,428.606,216.735,432.552,211.862,432.552"></path><path style="fill:#F0C419;" d="M141.241,432.552h-17.655c-4.873,0-8.828-3.946-8.828-8.828v-17.655 c0-4.882,3.955-8.828,8.828-8.828h17.655c4.873,0,8.828,3.946,8.828,8.828v17.655C150.069,428.606,146.114,432.552,141.241,432.552 "></path><path style="fill:#E64C3C;" d="M70.621,432.552H52.966c-4.873,0-8.828-3.946-8.828-8.828v-17.655c0-4.882,3.955-8.828,8.828-8.828 h17.655c4.873,0,8.828,3.946,8.828,8.828v17.655C79.448,428.606,75.494,432.552,70.621,432.552"></path><path style="fill:#F0C419;" d="M406.069,238.345c0,0-33.589,34.578-105.931,34.578v93.219c0,47.025,24.099,92.363,61.069,121.415 c13.083,10.284,26.977,19.129,44.862,24.444c17.885-5.314,34.869-14.159,47.96-24.444C490.999,458.505,512,413.166,512,366.142 v-93.219C439.658,272.922,406.069,238.345,406.069,238.345"></path><path style="fill:#FFFFFF;" d="M406.319,474.535c-7.371-3.302-14.654-7.936-23.296-14.733 c-29.343-23.066-47.572-58.959-47.572-93.661v-60.398c31.347-4.555,54.74-14.618,70.621-23.896 c15.881,9.278,39.265,19.341,70.621,23.896v60.398c0,36.758-16.631,71.768-44.482,93.652 C424.91,465.531,415.826,470.677,406.319,474.535"></path><path style="fill:#26B99A;" d="M397.241,414.164c-2.33,0-4.582-0.918-6.241-2.586l-26.483-26.483 c-3.452-3.452-3.452-9.031,0-12.482c3.452-3.452,9.031-3.452,12.482,0l19.121,19.112l38.073-53.31 c2.834-3.972,8.351-4.899,12.314-2.048c3.972,2.825,4.89,8.342,2.057,12.306l-44.138,61.793c-1.509,2.11-3.875,3.46-6.453,3.672 C397.727,414.155,397.48,414.164,397.241,414.164"></path></g></svg>