<!-- icon666.com - MILLIONS vector ICONS FREE --><svg id="Layer_1" enable-background="new 0 0 512 512" viewBox="0 0 512 512" xmlns="http://www.w3.org/2000/svg"><g><g><circle cx="120" cy="47.353" fill="#2387c3" r="8"></circle><path d="m112 69.977v33.376c0 4.418 3.582 8 8 8h280v-41.376c9.311-3.302 16-12.195 16-22.624 0-13.234-10.766-24-24-24s-24 10.766-24 24c0 10.429 6.689 19.322 16 22.624v25.376h-256v-25.376c9.311-3.302 16-12.195 16-22.624 0-13.234-10.766-24-24-24s-24 10.766-24 24c0 10.429 6.689 19.321 16 22.624zm280-30.624c4.411 0 8 3.589 8 8s-3.589 8-8 8-8-3.589-8-8 3.589-8 8-8zm-272 0c4.411 0 8 3.589 8 8s-3.589 8-8 8-8-3.589-8-8 3.589-8 8-8z" fill="#5ad7ff"></path><g fill="#2387c3"><circle cx="112" cy="207.353" r="8"></circle><circle cx="80" cy="135.353" r="8"></circle><circle cx="400" cy="207.353" r="8"></circle></g><path d="m400 183.353c-3.701 0-7.208.843-10.341 2.345l-24.002-24.002c-1.5-1.5-3.535-2.343-5.657-2.343h-208c-2.122 0-4.157.843-5.657 2.343l-24.002 24.002c-3.133-1.502-6.64-2.345-10.341-2.345-13.234 0-24 10.766-24 24s10.766 24 24 24 24-10.766 24-24c0-3.701-.843-7.208-2.345-10.341l21.659-21.659h201.373l21.659 21.659c-1.502 3.133-2.345 6.64-2.345 10.341 0 13.234 10.766 24 24 24s24-10.766 24-24-10.767-24-24.001-24zm-296 24c0-4.411 3.589-8 8-8s8 3.589 8 8-3.589 8-8 8-8-3.589-8-8zm296 8c-4.411 0-8-3.589-8-8s3.589-8 8-8 8 3.589 8 8-3.589 8-8 8z" fill="#5ad7ff"></path><circle cx="392" cy="47.353" fill="#2387c3" r="8"></circle><circle cx="432" cy="135.353" fill="#2387c3" r="8"></circle><path d="m432 111.353c-10.429 0-19.322 6.689-22.624 16h-306.752c-3.302-9.311-12.195-16-22.624-16-13.234 0-24 10.766-24 24s10.766 24 24 24c10.429 0 19.322-6.689 22.624-16h306.752c3.302 9.311 12.195 16 22.624 16 13.234 0 24-10.766 24-24s-10.766-24-24-24zm-352 32c-4.411 0-8-3.589-8-8s3.589-8 8-8 8 3.589 8 8-3.589 8-8 8zm352 0c-4.411 0-8-3.589-8-8s3.589-8 8-8 8 3.589 8 8-3.589 8-8 8z" fill="#5ad7ff"></path></g><g><g><path d="m344 103.353c0-49.018-40.078-88.675-89.253-87.991-48.703.677-87.879 41.429-86.722 90.123.573 24.118 10.85 45.833 27.076 61.392 13.242 12.697 20.899 30.129 20.899 48.475h80c0-18.356 7.674-35.787 20.919-48.496 16.69-16.014 27.081-38.545 27.081-63.503z" fill="#faa019"></path></g><g><path d="m296 215.353h-80v32c0 4.418 3.582 8 8 8h64c4.418 0 8-3.582 8-8z" fill="#d7e6f0"></path></g><g><path d="m296 215.353h-40v40h32c4.418 0 8-3.582 8-8z" fill="#a5c3dc"></path></g><g><path d="m266.947 271.353h-21.895c-8.837 0-16-7.163-16-16h53.895c0 8.837-7.163 16-16 16z" fill="#463c4b"></path></g><g><circle cx="220" cy="67.353" fill="#ffcd05" r="20"></circle></g></g><g><path d="m184 351.353c-22.091 0-40-17.909-40-40v-32c0-4.418 3.582-8 8-8h32c22.091 0 40 17.909 40 40 0 22.091-17.909 40-40 40z" fill="#463c4b"></path></g><g><path d="m184 271.353h-32c-4.418 0-8 3.582-8 8v8h24c22.091 0 40 17.908 40 40 0 6.932-1.764 13.45-4.866 19.134 12.431-6.785 20.866-19.974 20.866-35.134 0-22.092-17.909-40-40-40z" fill="#555a6e"></path></g><g><g><path d="m221.049 284.425h56.568v211.189h-56.568z" fill="#faa019" transform="matrix(-.707 -.707 .707 -.707 149.853 842.111)"></path></g><g><path d="m225.191 274.425h28.284v211.189h-28.284z" fill="#ffcd05" transform="matrix(-.707 -.707 .707 -.707 139.853 817.969)"></path></g><g><path d="m147.771 469.791 21.791 21.791c2.415 2.415 5.69 3.771 9.104 3.771 3.415 0 6.69-1.357 9.104-3.771l6.896-6.895-40-40-6.895 6.895c-2.415 2.415-3.771 5.69-3.771 9.105 0 3.415 1.357 6.69 3.771 9.104z" fill="#463c4b"></path></g><g><path d="m147.771 469.791 10.895 10.895 16-16-20-20-6.895 6.895c-2.415 2.415-3.771 5.69-3.771 9.105 0 3.416 1.357 6.691 3.771 9.105z" fill="#555a6e"></path></g><g><path d="m344 335.353 16-40-16-16-40 16z" fill="#fab991"></path></g><g><path d="m360 295.353 6.515-15.2c.897-2.094.429-4.522-1.181-6.133-1.611-1.611-4.039-2.078-6.133-1.181l-15.2 6.514z" fill="#463c4b"></path></g></g><g><path d="m362.667 490.02-138.667-138.667 16-16 122.667 122.667c8.836 8.836 8.836 23.163 0 32z" fill="#5ad7ff"></path></g><g><path d="m362.667 490.02c-8.837 8.837-23.163 8.837-32 0l-122.667-122.667 16-16z" fill="#2387c3"></path></g><g><path d="m218.343 325.01-10.343 10.343 28 28 16-16-22.343-22.343c-3.124-3.124-8.19-3.124-11.314 0z" fill="#d7e6f0"></path></g><g><path d="m208 335.353-10.343 10.343c-3.124 3.124-3.124 8.19 0 11.314l22.343 22.343 16-16z" fill="#a5c3dc"></path></g></g></svg>