<!-- icon666.com - MILLIONS vector ICONS FREE --><svg id="color" enable-background="new 0 0 24 24" viewBox="0 0 24 24" xmlns="http://www.w3.org/2000/svg"><path d="m12 4 10 4-10 4-10-4z" fill="#ffc107"></path><path d="m2 8 10 4v12l-10-4z" fill="#ffd54f"></path><path d="m22 8-10 4v12l10-4z" fill="#ffca28"></path><g fill="#00bcd4"><path d="m4.293 18.293-1.782 1.782c-.164-.044-.333-.075-.511-.075-1.103 0-2 .897-2 2s.897 2 2 2 2-.897 2-2c0-.178-.031-.347-.075-.511l1.782-1.782c.391-.391.391-1.023 0-1.414s-1.023-.391-1.414 0z"></path><path d="m12 0c-1.103 0-2 .897-2 2 0 .737.405 1.375 1 1.722v3.278c0 .552.448 1 1 1s1-.448 1-1v-3.278c.595-.347 1-.985 1-1.722 0-1.103-.897-2-2-2z"></path><path d="m22 20c-.178 0-.347.031-.511.075l-1.782-1.782c-.391-.391-1.023-.391-1.414 0s-.391 1.023 0 1.414l1.782 1.782c-.044.164-.075.333-.075.511 0 1.103.897 2 2 2s2-.897 2-2-.897-2-2-2z"></path></g><path d="m11 4.4-9 3.6 10 4v-4c-.552 0-1-.448-1-1z" fill="#dea806"></path><path d="m2 8v12c.178 0 .347.031.511.075l1.782-1.782c.195-.195.451-.293.707-.293s.512.098.707.293c.391.391.391 1.023 0 1.414l-1.268 1.268 7.561 3.025v-12z" fill="#deb945"></path><path d="m5 18c-.256 0-.512.098-.707.293l-1.782 1.782c-.164-.044-.333-.075-.511-.075-1.103 0-2 .897-2 2s.897 2 2 2 2-.897 2-2c0-.178-.031-.347-.075-.511l.513-.513 1.268-1.268c.391-.391.391-1.023 0-1.414-.194-.196-.45-.294-.706-.294z" fill="#00a4b9"></path><path d="m12 0c-1.103 0-2 .897-2 2 0 .737.405 1.375 1 1.722v.678 2.6c0 .552.448 1 1 1z" fill="#00a4b9"></path></svg>