<!-- icon666.com - MILLIONS vector ICONS FREE --><svg xmlns="http://www.w3.org/2000/svg" xmlns:xlink="http://www.w3.org/1999/xlink" viewBox="0 0 60 60" version="1.1"><title>025 - Tools </title><desc>Created with Sketch.</desc><defs></defs><g id="Page-1" stroke="none" stroke-width="1" fill="none" fill-rule="evenodd"><g id="025---Tools-" transform="translate(-1.000000, -1.000000)" fill-rule="nonzero"><g id="Icons" transform="translate(1.000000, 2.000000)"><path d="M39.205,33.956 L28.59,23.351 L16.944,11.706 L16.89,11.76 L9.41,4.28 C9.22735721,4.09897037 8.98007146,3.99823703 8.72292054,4.00011404 C8.46576962,4.00199106 8.2199807,4.10632348 8.04,4.29 L5.29,7.04 C5.10302715,7.22086449 4.99745786,7.46986386 4.99745786,7.73 C4.99745786,7.99013614 5.10302715,8.23913551 5.29,8.42 L12.76,15.89 L12.704,15.946 L24.35,27.591 L31.41,34.651 L38.705,41.945 L42.945,37.695 L39.205,33.956 Z" id="Shape" fill="#607D8B"></path><path d="M58.33,4.91 L56.63,6.61 L54.09,9.15 C53.527869,9.69659564 52.7715519,9.99737861 51.9875676,9.98612524 C51.2035833,9.97487188 50.4562109,9.65250486 49.91,9.09 C49.5838627,8.76597354 49.3344262,8.37302564 49.18,7.94 C48.8027552,6.88515194 49.0631721,5.70744585 49.85,4.91 L54.09,0.67 C52.9252885,0.164231927 51.6573554,-0.0585130786 50.39,0.02 C48.5311395,0.1266906 46.7764346,0.913282463 45.46,2.23 C43.779761,3.91740832 42.9780716,6.2892267 43.29,8.65 L9.87,42.06 C6.49356568,41.6857624 3.24897629,43.4847449 1.77779902,46.5467703 C0.306621747,49.6087958 0.929717748,53.2660419 3.3318379,55.6681621 C5.73395806,58.0702823 9.39120421,58.6933783 12.4532297,57.222201 C15.5152551,55.7510237 17.3142376,52.5064343 16.94,49.13 L50.35,15.71 C52.7107733,16.0219284 55.0825917,15.220239 56.77,13.54 C59.0196562,11.2601524 59.6391372,7.83315211 58.33,4.91 Z M6.88,47.88 C7.56262725,47.1943213 8.53670916,46.8845558 9.49,47.05 C10.1084448,47.1442044 10.6800461,47.4352652 11.12,47.88 C11.9226127,48.6278823 12.2529967,49.7542222 11.9815422,50.8171556 C11.7100876,51.8800891 10.8800891,52.7100876 9.81715563,52.9815422 C8.75422217,53.2529967 7.62788232,52.9226127 6.88,52.12 C6.55119714,51.7903196 6.30158312,51.3902534 6.15,50.95 C5.79538717,49.8708661 6.07760277,48.6840142 6.88,47.88 Z" id="Shape" fill="#2296F3"></path><path d="M58.33,4.91 L56.63,6.61 C56.5233094,8.46886047 55.7367175,10.2235654 54.42,11.54 C52.7325917,13.220239 50.3607733,14.0219284 48,13.71 L14.59,47.13 C14.9210453,50.1088112 13.556545,53.0222349 11.056298,54.675012 C8.55605098,56.3277892 5.3409423,56.4416955 2.73,54.97 C2.91977883,55.2116362 3.12345635,55.4420255 3.34,55.66 C5.73968373,58.0612917 9.39430081,58.685046 12.4546179,57.2156437 C15.514935,55.7462415 17.3134036,52.5042041 16.94,49.13 L50.35,15.71 C52.7107733,16.0219284 55.0825917,15.220239 56.77,13.54 C59.0196562,11.2601524 59.6391372,7.83315211 58.33,4.91 Z" id="Shape" fill="#1566C0"></path><path d="M57.24,56.24 C56.9947171,56.4847071 56.7268599,56.7056893 56.44,56.9 C54.0598925,58.5760254 50.8192548,58.2975331 48.76,56.24 L33.74,41.23 C33.4867861,40.9760084 33.3910991,40.6047428 33.49,40.26 C33.5287623,40.0892466 33.6154989,39.9331207 33.74,39.81 L40.81,32.74 C41.2030079,32.3500221 41.8369921,32.3500221 42.23,32.74 L57.24,47.76 C58.3682732,48.8825211 59.0026163,50.4084429 59.0026163,52 C59.0026163,53.5915571 58.3682732,55.1174789 57.24,56.24 Z" id="Shape" fill="#F57C00"></path><path d="M56.44,56.9 C54.0598925,58.5760254 50.8192548,58.2975331 48.76,56.24 L33.74,41.23 C33.4867861,40.9760084 33.3910991,40.6047428 33.49,40.26 L39.01,34.74 C39.4030079,34.3500221 40.0369921,34.3500221 40.43,34.74 L55.44,49.76 C57.3385821,51.6455472 57.7475275,54.5654179 56.44,56.9 Z" id="Shape" fill="#FF9801"></path><path d="M29.25,1.46 C27.875986,1.46227741 26.527025,1.82798039 25.34,2.52 C21.72,0.99 18.04,2.75 15.61,4.46 C17.32,2.81 23.6,-2.55 29.25,1.46 Z" id="Shape" fill="#607D8B"></path><path d="M21.82,11.57 C22.1745987,11.9290894 22.3717698,12.4144991 22.3680177,12.9191488 C22.3642657,13.4237986 22.1598988,13.9062228 21.8,14.26 L15.64,20.42 C15.4650602,20.5926175 15.2254001,20.6833978 14.98,20.67 L19.45,16.2 C20.2006895,15.4597618 20.2096412,14.2512777 19.47,13.5 L16.82,10.85 C16.4654033,10.4504808 16.4874204,9.84280991 16.87,9.47 C18.110034,8.03549724 19.5128035,6.75018447 21.05,5.64 C20.46,6.2 19.85,6.83 19.22,7.54 C18.8374204,7.91280991 18.8154033,8.52048081 19.17,8.92 L21.82,11.57 Z" id="Shape" fill="#607D8B"></path><path d="M25.34,2.52 C23.7734846,3.34912049 22.3324702,4.39621272 21.06,5.63 C21.06,5.63265216 21.0589464,5.6351957 21.0570711,5.63707107 C21.0551957,5.63894643 21.0526522,5.64 21.05,5.64 C19.5128035,6.75018447 18.110034,8.03549724 16.87,9.47 C16.4874204,9.84280991 16.4654033,10.4504808 16.82,10.85 L19.47,13.5 C20.2096412,14.2512777 20.2006895,15.4597618 19.45,16.2 L14.98,20.67 C14.7324611,20.6551129 14.4983889,20.5522629 14.32,20.38 C13.9678865,20.0287547 13.4871854,19.8371971 12.99,19.85 C12.4818856,19.8518409 11.9956791,20.0571281 11.64,20.42 L11.26,20.8 C10.680395,21.3789544 10.528186,22.2601641 10.88,23 L11.3,23.84 C11.482473,24.2089908 11.4056771,24.6535987 11.11,24.94 L9.56,26.49 C9.30810906,26.7440781 8.98894759,26.9210045 8.64,27 C8.00663444,27.1636489 7.33391085,26.9812154 6.87,26.52 L1.54,21.19 C0.840774462,20.4758429 0.81885881,19.3406121 1.49,18.6 C1.51355514,18.5642923 1.54033384,18.5308189 1.57,18.5 L3.12,16.95 C3.41201472,16.6560242 3.86004919,16.5833699 4.23,16.77 L5.06,17.18 C5.3039681,17.2968584 5.56962022,17.3615685 5.84,17.37 C6.37528343,17.3876491 6.89363243,17.1810345 7.27,16.8 L7.65,16.42 C8.02583524,16.0784419 8.24340764,15.5964673 8.25098669,15.0886714 C8.25856573,14.5808756 8.05547433,14.0926224 7.69,13.74 C7.49889952,13.5676372 7.38981524,13.3223487 7.38981524,13.065 C7.38981524,12.8076513 7.49889952,12.5623628 7.69,12.39 L15.16,4.91 C15.16,4.91 15.31,4.74 15.6,4.47 C15.6,4.46 15.6,4.46 15.61,4.46 C18.04,2.75 21.72,0.99 25.34,2.52 Z" id="Shape" fill="#CFD8DC"></path></g><g id="Outline" fill="#000000"><path d="M51.728,18.755 C54.2326713,18.9405134 56.694289,18.0281274 58.473,16.255 C61.020039,13.6862335 61.7270965,9.81648439 60.253,6.513 C60.1214875,6.20897855 59.8479601,5.98980917 59.522581,5.92773683 C59.1972018,5.8656645 58.8621991,5.96874506 58.628,6.203 L54.387,10.44 C54.0340681,10.8102745 53.5379941,11.0094337 53.027,10.986 C52.4963163,10.9781424 51.9898142,10.7627624 51.616,10.386 C50.8376407,9.63526942 50.8126073,8.39656498 51.56,7.615 L55.8,3.372 C56.0342549,3.13780093 56.1373355,2.8027982 56.0752632,2.47741903 C56.0131908,2.15203985 55.7940215,1.8785125 55.49,1.747 C52.1866215,0.272021815 48.3163557,0.979173654 45.748,3.527 C43.9714258,5.30350275 43.0584331,7.76675701 43.248,10.272 L29.588,23.932 L23.065,17.409 L23.507,16.967 C24.0532427,16.424193 24.3636543,15.6880433 24.371,14.918 C24.3825279,14.1471927 24.080434,13.4047708 23.534,12.861 L20.916,10.3 C20.9236701,10.262259 20.9420737,10.2275352 20.969,10.2 C26.206,4.27 30.069,4.45 30.157,4.453 C30.6075084,4.49425017 31.0295987,4.22791055 31.1862864,3.80351883 C31.3429741,3.3791271 31.1952276,2.90240069 30.826,2.641 C25.026,-1.472 18.217,3.192 15.458,6.202 L13.6,8.057 L11.117,5.572 C10.344415,4.80813214 9.09952462,4.81305088 8.333,5.583 L5.592,8.324 C5.21480846,8.69158047 5.00133129,9.19543598 4.99963841,9.72211044 C4.99794553,10.2487849 5.20817924,10.7540024 5.583,11.124 L8.057,13.6 L7.98,13.677 C7.57702255,14.0782659 7.36392214,14.6321088 7.394,15.2 C7.41600365,15.7178491 7.66016994,16.2010797 8.064,16.526 C8.18281712,16.6277266 8.25084661,16.7765868 8.25,16.933 C8.25904002,17.2263611 8.14649923,17.5104271 7.939,17.718 L7.558,18.099 C7.28354393,18.3773082 6.86423926,18.4540541 6.509,18.291 L5.676,17.874 C4.91955117,17.4990909 4.00808452,17.6501293 3.413,18.249 L1.863,19.8 C1.31806092,20.3415568 1.00806775,21.07577 1,21.844 C0.988216604,22.6141701 1.28955082,23.3561379 1.835,23.9 L7.163,29.228 C7.70056249,29.7650829 8.43011536,30.0656141 9.19,30.063 C9.97015504,30.0630767 10.7182398,29.7525442 11.269,29.2 L12.818,27.65 C13.4183232,27.0556659 13.569526,26.1432071 13.193,25.387 L12.783,24.566 C12.6130841,24.208934 12.6872663,23.783489 12.968,23.505 L13.349,23.124 C13.6955436,22.7724136 14.2582292,22.7582691 14.622,23.092 C14.9780732,23.4602088 15.4667543,23.6705136 15.9789419,23.6759624 C16.4911295,23.6814112 16.984174,23.4815503 17.348,23.121 L17.407,23.062 L23.931,29.585 L10.5,43.021 C6.36868566,42.7863173 2.60970596,45.3989098 1.38965671,49.3529348 C0.169607456,53.3069599 1.80291821,57.5833911 5.34818345,59.7173846 C8.8934487,61.8513782 13.4369871,61.292964 16.36,58.364 C18.1760214,56.5584955 19.1297498,54.0603753 18.979,51.504 L32.414,38.069 L34.742,40.4 L33.327,41.814 C32.9366181,42.2044999 32.9366181,42.8375001 33.327,43.228 L49.051,58.948 C51.7848095,61.6818095 56.2171905,61.6818095 58.951,58.948 C61.6848095,56.2141905 61.6848095,51.7818095 58.951,49.048 L43.227,33.326 C42.8365001,32.9356181 42.2034999,32.9356181 41.813,33.326 L40.4,34.738 L38.073,32.41 L51.728,18.755 Z M7,9.747 L9.7,6.987 L12.184,9.471 L9.465,12.191 L7,9.747 Z M14,20.853 C13.2271514,20.858078 12.4871389,21.1661472 11.939,21.711 L11.558,22.092 C10.673166,22.9764245 10.4459614,24.324398 10.992,25.45 L11.408,26.237 L9.858,27.787 C9.69280799,27.9608309 9.46507377,28.0615487 9.22532815,28.0668054 C8.98558253,28.0720622 8.75365256,27.9814232 8.581,27.815 L3.249,22.487 C3.08503607,22.3220446 2.99515871,22.0975317 3,21.865 C3.00267106,21.618749 3.10217967,21.3834489 3.277,21.21 L4.782,19.66 L5.626,20.083 C6.74986235,20.6218146 8.0914625,20.3920666 8.972,19.51 L9.353,19.129 C9.96003323,18.5193686 10.2842238,17.6835081 10.247,16.824 C10.2205278,16.1499337 9.92564119,15.5144332 9.428,15.059 L14.3,10.189 L14.329,10.16 L16.9,7.584 C16.959,7.521 21.945,2.171 27.022,3.129 C24.0866244,4.42175058 21.4987931,6.39072288 19.47,8.875 C18.7350081,9.64356193 18.7350081,10.8544381 19.47,11.623 L22.122,14.275 C22.2866544,14.4400591 22.3772386,14.6648957 22.373,14.898 C22.3703421,15.1441596 22.2704022,15.37927 22.095,15.552 L16,21.643 C15.4662924,21.1220508 14.7456463,20.8373956 14,20.853 Z M18.825,21.653 L21.651,18.827 L28.175,25.35 L25.349,28.176 L18.825,21.653 Z M17.236,50.418 C17.0210513,50.6332842 16.915792,50.9347087 16.95,51.237 C17.2760325,54.1891681 15.7021969,57.0253501 13.0246559,58.3107948 C10.3471149,59.5962395 7.14973978,59.0506396 5.05,56.95 C3.05537924,54.9508013 2.4574348,51.9488482 3.53379395,49.3379559 C4.61015309,46.7270636 7.14996975,45.0186752 9.974,45.006 C10.2376051,45.0062842 10.5009978,45.0209728 10.763,45.05 C11.0654253,45.085414 11.3673616,44.9799759 11.582,44.764 L26.028,30.317 C26.037,30.309 26.049,30.306 26.057,30.298 C26.065,30.29 26.068,30.278 26.076,30.269 L30.268,26.077 C30.277,26.069 30.288,26.067 30.297,26.058 C30.306,26.049 30.308,26.038 30.316,26.029 L44.993,11.353 C45.2113982,11.134567 45.3165952,10.8274656 45.278,10.521 C44.9919153,8.38316707 45.7596467,6.23926273 47.3377864,4.76900794 C48.9159261,3.29875314 51.1087398,2.68450136 53.221,3.121 L50.146,6.2 C48.6172833,7.7627529 48.642337,10.2681309 50.202,11.8 C50.9433692,12.5464871 51.9480094,12.9723281 53,12.986 C54.0518594,13.0241049 55.0701638,12.612419 55.8,11.854 L58.876,8.78 C59.3126028,10.892188 58.6983477,13.0849764 57.2280277,14.6629875 C55.7577076,16.2409986 53.6137323,17.0084622 51.476,16.722 C51.1695344,16.6834048 50.862433,16.7886018 50.644,17.007 L31.726,35.928 C31.719,35.935 31.71,35.937 31.703,35.944 C31.696,35.951 31.694,35.96 31.688,35.967 L17.236,50.418 Z M42.52,35.447 L57.535,50.462 C58.8075226,51.7230741 59.308087,53.568601 58.8471721,55.2998374 C58.3862572,57.0310737 57.0343142,58.3833992 55.3032083,58.8448037 C53.5721024,59.3062082 51.726434,58.8061659 50.465,57.534 L35.448,42.518 L36.842,41.125 C36.85,41.117 36.861,41.115 36.868,41.107 L40.362,37.607 L42.52,35.447 Z M38.986,36.147 L38.855,36.279 L36.155,38.979 L33.827,36.652 L36.658,33.821 L38.986,36.147 Z" id="Shape"></path><path d="M7.17,49.175 C6.02575754,50.3188969 5.6833131,52.039463 6.30236631,53.5343089 C6.92141952,55.0291548 8.38004109,56.0038542 9.998,56.0038542 C11.6159589,56.0038542 13.0745805,55.0291548 13.6936337,53.5343089 C14.3126869,52.039463 13.9702425,50.3188969 12.826,49.175 C11.2424419,47.6664285 8.75355805,47.6664285 7.17,49.175 Z M11.412,53.416 C10.6200179,54.169778 9.37598211,54.169778 8.584,53.416 C8.01187877,52.8440515 7.84065655,51.9837685 8.15018316,51.2363456 C8.45970976,50.4889226 9.18902055,50.0015729 9.998,50.0015729 C10.8069795,50.0015729 11.5362902,50.4889226 11.8458168,51.2363456 C12.1553434,51.9837685 11.9841212,52.8440515 11.412,53.416 Z" id="Shape"></path><path d="M42.707,20.707 C43.0859722,20.3146211 43.0805524,19.6909152 42.6948186,19.3051814 C42.3090848,18.9194476 41.6853789,18.9140278 41.293,19.293 L19.293,41.293 C19.0330434,41.5440745 18.9287874,41.9158779 19.0203028,42.2655073 C19.1118183,42.6151368 19.3848632,42.8881817 19.7344927,42.9796972 C20.0841221,43.0712126 20.4559255,42.9669566 20.707,42.707 L42.707,20.707 Z" id="Shape"></path></g></g></g></svg>