<?xml version="1.0" encoding="iso-8859-1"?>
<!-- Uploaded to: SVG Repo, www.svgrepo.com, Generator: SVG Repo Mixer Tools -->
<svg height="800px" width="800px" version="1.1" id="Layer_1" xmlns="http://www.w3.org/2000/svg" xmlns:xlink="http://www.w3.org/1999/xlink" 
	 viewBox="0 0 443.18 443.18" xml:space="preserve">
<g>
	<path style="fill:#005ECE;" d="M136.88,160V0c-44.112,0-80,35.888-80,80S92.768,160,136.88,160z"/>
	<path style="fill:#003F8A;" d="M216.88,80c0-44.112-35.888-80-80-80v160C180.992,160,216.88,124.112,216.88,80z"/>
	<path style="fill:#003F8A;" d="M265.629,328.75v-20c0-5.495-0.348-10.911-1.019-16.227C256.606,229.164,202.374,180,136.879,180
		v148.75H265.629z"/>
	<path style="fill:#005ECE;" d="M8.129,308.75v20h128.75V180C65.889,180,8.129,237.76,8.129,308.75z"/>
	<path style="fill:#2488FF;" d="M282.236,292.522"/>
	<path style="fill:#2488FF;" d="M375.05,176.126c-5.308-1.17-10.815-1.806-16.47-1.806c-39.97,0-72.854,30.831-76.173,69.956
		c-0.182,2.149-0.297,4.318-0.297,6.513v41.732v36.227v9.727c0,26.597,21.639,48.234,48.235,48.234s48.234-21.638,48.234-48.234
		V250.79h-40v87.687c0,4.541-3.694,8.234-8.234,8.234c-4.541,0-8.235-3.694-8.235-8.234V250.79c0-20.109,16.36-36.469,36.47-36.469
		c5.925,0,11.519,1.429,16.47,3.947c11.854,6.028,20,18.338,20,32.523v87.686c0,35.678-29.026,64.704-64.704,64.704
		s-64.704-29.026-64.704-64.704v-9.726h-40v9.726c0,57.734,46.97,104.704,104.704,104.704s104.704-46.97,104.704-104.704V250.79
		C435.05,214.28,409.324,183.682,375.05,176.126z"/>
</g>
</svg>