<?xml version="1.0" encoding="iso-8859-1"?>
<!-- Uploaded to: SVG Repo, www.svgrepo.com, Generator: SVG Repo Mixer Tools -->
<svg version="1.1" id="Layer_1" xmlns="http://www.w3.org/2000/svg" xmlns:xlink="http://www.w3.org/1999/xlink" 
	 viewBox="0 0 443.18 443.18" xml:space="preserve">
<g>
	<path style="fill:#005ECE;" d="M135.768,160V0c-44.112,0-80,35.888-80,80S91.656,160,135.768,160z"/>
	<path style="fill:#003F8A;" d="M215.769,80c0-44.112-35.888-80-80-80v160C179.88,160,215.769,124.112,215.769,80z"/>
	<path style="fill:#003F8A;" d="M214.252,206.764C192.51,189.993,165.286,180,135.768,180v148.75h33.024
		c-0.978-6.527-1.489-13.205-1.489-20C167.303,268.004,185.529,231.437,214.252,206.764z"/>
	<path style="fill:#005ECE;" d="M7.018,308.75v20h128.75V180C64.778,180,7.018,237.76,7.018,308.75z"/>
	<path style="fill:#FFDA44;" d="M240.117,328.75v-40h61.616V174.321c-33.378,0-63.951,12.232-87.48,32.443
		c-28.724,24.673-46.95,61.239-46.95,101.986c0,6.795,0.512,13.473,1.489,20c9.688,64.673,65.611,114.43,132.94,114.43V328.75
		H240.117z"/>
	<path style="fill:#FFCD00;" d="M301.732,174.321V288.75h61.616v40h-61.616v114.43c74.125,0,134.43-60.305,134.43-134.43
		C436.162,234.625,375.857,174.321,301.732,174.321z"/>
	<rect x="240.117" y="288.75" style="fill:#2488FF;" width="123.231" height="40"/>
</g>
</svg>